<svg width="400" height="111" viewBox="0 0 400 111" fill="none" xmlns="http://www.w3.org/2000/svg">
<path fill-rule="evenodd" clip-rule="evenodd" d="M131.478 27.3816C155.473 27.3816 170.453 42.0043 167.69 71.1062H111.699C112.863 79.8511 120.57 86.1589 133.077 86.1589C139.622 86.1589 148.202 83.7218 152.274 79.5644L163.618 90.6031C156.055 98.3445 143.694 102.072 132.786 102.072C108.063 102.072 93.375 87.0191 93.375 64.3683C93.375 42.8644 108.209 27.3816 131.478 27.3816ZM132.059 42.8644C122.461 42.8644 114.608 47.4519 111.99 56.6269H150.674C149.511 47.4519 142.239 42.8644 132.059 42.8644Z" fill="#1E1E1E"/>
<path fill-rule="evenodd" clip-rule="evenodd" d="M215.907 27.3816C239.903 27.3816 254.882 42.0043 252.119 71.1062H196.128C197.292 79.8511 205 86.1589 217.507 86.1589C224.051 86.1589 232.631 83.7218 236.703 79.5644L248.047 90.6031C240.484 98.3445 228.123 102.072 217.216 102.072C192.493 102.072 177.804 87.0191 177.804 64.3683C177.804 42.8644 192.638 27.3816 215.907 27.3816ZM216.489 42.8644C206.89 42.8644 199.037 47.4519 196.419 56.6269H235.104C233.94 47.4519 226.669 42.8644 216.489 42.8644Z" fill="#1E1E1E"/>
<path d="M266.589 0H284.329V4.82185H266.589V0Z" fill="#7B18DD"/>
<path d="M266.598 7.23506V100.208H284.34V68.239L312.408 100.208H333.786V98.9179L300.483 62.7914L329.714 30.5355V29.532H308.482L284.34 57.9172V7.23506H266.598Z" fill="#1E1E1E"/>
<path d="M266.598 4.82185H284.34V0H266.598V4.82185Z" fill="#7B18DD"/>
<path d="M79.4046 40.9547C71.6969 25.4719 55.2633 21.0278 39.4115 21.0278C20.651 21.1711 0 29.6293 0 50.2731C0 72.7805 19.1967 78.2281 39.9932 80.6652C53.5181 82.0988 63.5528 85.9695 63.5528 95.4312C63.5528 97.9431 62.9499 100.23 61.8741 102.057H81.9874C82.3922 100.025 82.6041 97.7291 82.6041 95.4312C82.6041 71.4902 62.8257 66.0426 41.5929 63.4621C29.3768 62.0285 18.9059 59.5914 18.9059 50.8465C18.9059 43.3918 25.7411 37.5141 39.9932 37.5141C51.0458 37.5141 60.6442 42.9617 64.1345 48.6961L79.4046 40.9547Z" fill="#1E1E1E"/>
<path d="M343.573 100.208V29.532H360.007L361.316 37.7035C366.842 28.9586 374.259 27.6683 381.53 27.6683C388.947 27.6683 396.073 30.5355 400 34.4062L392.001 49.6023C388.366 46.5918 385.021 45.0148 379.204 45.0148C369.896 45.0148 361.316 49.889 361.316 62.9347V100.208H343.573Z" fill="#1E1E1E"/>
<path d="M7.27879 100.786C7.27879 114.405 28.2207 114.405 28.2207 100.786C28.2207 87.1665 7.27879 87.1665 7.27879 100.786Z" fill="#7B18DD"/>
</svg>
